<?xml version="1.0" encoding="utf-8"?>
<!-- Generator: Adobe Illustrator 24.1.2, SVG Export Plug-In . SVG Version: 6.00 Build 0)  -->
<svg version="1.1" id="Layer_1" xmlns="http://www.w3.org/2000/svg" xmlns:xlink="http://www.w3.org/1999/xlink" x="0px" y="0px"
	 viewBox="0 0 24 24" style="enable-background:new 0 0 24 24;" xml:space="preserve">
<g>
	<path d="M23.1,11.3h-1c-0.4-4.9-4.3-8.7-9.2-9.2v-1c0-0.5-0.4-0.9-0.9-0.9c-0.5,0-0.9,0.4-0.9,0.9v1c-4.9,0.4-8.7,4.3-9.2,9.2h-1
		c-0.5,0-0.9,0.4-0.9,0.9c0,0.5,0.4,0.9,0.9,0.9h1c0.4,4.9,4.3,8.7,9.2,9.2v1c0,0.5,0.4,0.9,0.9,0.9c0.5,0,0.9-0.4,0.9-0.9v-1
		c4.9-0.4,8.7-4.3,9.2-9.2h1c0.5,0,0.9-0.4,0.9-0.9S23.6,11.3,23.1,11.3L23.1,11.3z M12,20.5c-4.6,0-8.3-3.7-8.3-8.3S7.4,3.9,12,3.9
		s8.3,3.7,8.3,8.3S16.6,20.5,12,20.5z"/>
	<path d="M16.5,11.3c-0.4-1.8-1.8-3.2-3.6-3.6v-1c0-0.5-0.4-0.9-0.9-0.9c-0.5,0-0.9,0.4-0.9,0.9v1c-1.8,0.4-3.2,1.8-3.6,3.6h-1
		c-0.5,0-0.9,0.4-0.9,0.9c0,0.5,0.4,0.9,0.9,0.9h1c0.4,1.8,1.8,3.2,3.6,3.6v0.7c0,0.5,0.4,0.9,0.9,0.9c0.5,0,0.9-0.4,0.9-0.9v-0.7
		c1.8-0.4,3.2-1.8,3.6-3.6h1c0.5,0,0.9-0.4,0.9-0.9s-0.4-0.9-0.9-0.9H16.5z M12,15c-1.5,0-2.8-1.2-2.8-2.8s1.2-2.8,2.8-2.8
		s2.8,1.2,2.8,2.8S13.5,15,12,15z"/>
	<circle cx="12" cy="12.2" r="0.9"/>
</g>
</svg>
