<?xml version="1.0" encoding="utf-8"?>
<!-- Generator: Adobe Illustrator 24.1.2, SVG Export Plug-In . SVG Version: 6.00 Build 0)  -->
<svg version="1.1" id="Capa_1" xmlns="http://www.w3.org/2000/svg" xmlns:xlink="http://www.w3.org/1999/xlink" x="0px" y="0px"
	 viewBox="0 0 512 512" style="enable-background:new 0 0 512 512;" xml:space="preserve">
<style type="text/css">
	.st0{fill:#E7ECED;}
	.st1{fill:#AFB6BB;}
	.st2{fill:#495D72;}
	.st3{fill:#28384C;}
	.st4{fill:#EBBA16;}
	.st5{fill:#FFFFFF;}
	.st6{fill:#DD352E;}
	.st7{fill:#366DB6;}
	.st8{fill:#75348B;}
	.st9{fill:#57ABC1;}
	.st10{fill:#25AE88;}
	.st11{fill:#F76363;}
	.st12{fill:#BF5A45;}
	.st13{fill:#F2ECBF;}
	.st14{fill:#ED8A19;}
	.st15{fill:#C5411E;}
</style>
<path class="st0" d="M370.8,503.2H141.2c-9.8,0-17.7-7.9-17.7-17.7l0,0c0-9.8,7.9-17.7,17.7-17.7h229.5c9.8,0,17.7,7.9,17.7,17.7
	l0,0C388.4,495.3,380.5,503.2,370.8,503.2z"/>
<path class="st1" d="M300.1,397.2v-17.7h-88.3v17.7c0,39-13.9,70.6-53,70.6h194.2C314.1,467.9,300.1,436.3,300.1,397.2z"/>
<path class="st0" d="M485.5,397.2h-459C11.9,397.2,0,385.4,0,370.8v-53h512v53C512,385.4,500.1,397.2,485.5,397.2z"/>
<path class="st1" d="M282.5,370.8h-53c-4.9,0-8.8-4-8.8-8.8s4-8.8,8.8-8.8h53c4.9,0,8.8,4,8.8,8.8S287.4,370.8,282.5,370.8z"/>
<path class="st2" d="M441.4,8.8H70.6H26.5C11.9,8.8,0,20.7,0,35.3v291.3h70.6H203H309h132.4H512V35.3c0-14.6-11.9-26.5-26.5-26.5
	L441.4,8.8L441.4,8.8z"/>
<rect x="238.3" y="44.1" class="st3" width="238.3" height="282.5"/>
<rect x="35.3" y="44.1" class="st4" width="220.7" height="282.5"/>
<path class="st5" d="M132.4,220.7c-1.3,0-2.7-0.3-3.9-0.9c-4.4-2.2-6.1-7.5-3.9-11.8l26.5-53c2.2-4.4,7.5-6.1,11.8-3.9
	c4.4,2.2,6.1,7.5,3.9,11.8l-26.5,53C138.8,218.9,135.6,220.7,132.4,220.7z"/>
<path class="st5" d="M70.6,194.2c-2.3,0-4.5-0.9-6.2-2.6c-3.5-3.5-3.5-9,0-12.5l26.5-26.5c3.4-3.5,9-3.5,12.5,0
	c3.5,3.5,3.5,9,0,12.5l-26.5,26.5C75.1,193.3,72.9,194.2,70.6,194.2z"/>
<path class="st5" d="M97.1,220.7c-2.3,0-4.5-0.9-6.2-2.6l-26.5-26.5c-3.5-3.5-3.5-9,0-12.5c3.4-3.5,9-3.5,12.5,0l26.5,26.5
	c3.5,3.5,3.5,9,0,12.5C101.6,219.8,99.4,220.7,97.1,220.7z"/>
<path class="st5" d="M220.7,194.2c-2.3,0-4.5-0.9-6.2-2.6L188,165.1c-3.5-3.5-3.5-9,0-12.5c3.4-3.5,9-3.5,12.5,0l26.5,26.5
	c3.5,3.5,3.5,9,0,12.5C225.2,193.3,222.9,194.2,220.7,194.2z"/>
<path class="st5" d="M194.2,220.7c-2.3,0-4.5-0.9-6.2-2.6c-3.5-3.5-3.5-9,0-12.5l26.5-26.5c3.4-3.5,9-3.5,12.5,0
	c3.5,3.5,3.5,9,0,12.5l-26.5,26.5C198.7,219.8,196.5,220.7,194.2,220.7z"/>
<path class="st6" d="M379.6,88.3h-88.3c-4.9,0-8.8-4-8.8-8.8s4-8.8,8.8-8.8h88.3c4.9,0,8.8,4,8.8,8.8S384.5,88.3,379.6,88.3z"/>
<path class="st7" d="M441.4,88.3h-26.5c-4.9,0-8.8-4-8.8-8.8s4-8.8,8.8-8.8h26.5c4.9,0,8.8,4,8.8,8.8S446.3,88.3,441.4,88.3z"/>
<path class="st8" d="M441.4,123.6h-88.3c-4.9,0-8.8-4-8.8-8.8s4-8.8,8.8-8.8h88.3c4.9,0,8.8,4,8.8,8.8S446.3,123.6,441.4,123.6z"/>
<path class="st9" d="M317.8,123.6h-26.5c-4.9,0-8.8-4-8.8-8.8s4-8.8,8.8-8.8h26.5c4.9,0,8.8,4,8.8,8.8S322.7,123.6,317.8,123.6z"/>
<path class="st10" d="M379.6,158.9h-88.3c-4.9,0-8.8-4-8.8-8.8s4-8.8,8.8-8.8h88.3c4.9,0,8.8,4,8.8,8.8S384.5,158.9,379.6,158.9z"/>
<path class="st11" d="M441.4,158.9h-26.5c-4.9,0-8.8-4-8.8-8.8s4-8.8,8.8-8.8h26.5c4.9,0,8.8,4,8.8,8.8S446.3,158.9,441.4,158.9z"/>
<path class="st12" d="M441.4,194.2h-88.3c-4.9,0-8.8-4-8.8-8.8s4-8.8,8.8-8.8h88.3c4.9,0,8.8,4,8.8,8.8S446.3,194.2,441.4,194.2z"/>
<path class="st13" d="M317.8,194.2h-26.5c-4.9,0-8.8-4-8.8-8.8s4-8.8,8.8-8.8h26.5c4.9,0,8.8,4,8.8,8.8S322.7,194.2,317.8,194.2z"/>
<path class="st10" d="M441.4,300.1h-88.3c-4.9,0-8.8-4-8.8-8.8c0-4.9,4-8.8,8.8-8.8h88.3c4.9,0,8.8,4,8.8,8.8
	S446.3,300.1,441.4,300.1z"/>
<path class="st6" d="M317.8,300.1h-26.5c-4.9,0-8.8-4-8.8-8.8c0-4.9,4-8.8,8.8-8.8h26.5c4.9,0,8.8,4,8.8,8.8
	S322.7,300.1,317.8,300.1z"/>
<path class="st8" d="M379.6,229.5h-88.3c-4.9,0-8.8-4-8.8-8.8s4-8.8,8.8-8.8h88.3c4.9,0,8.8,4,8.8,8.8S384.5,229.5,379.6,229.5z"/>
<path class="st4" d="M441.4,229.5h-26.5c-4.9,0-8.8-4-8.8-8.8s4-8.8,8.8-8.8h26.5c4.9,0,8.8,4,8.8,8.8S446.3,229.5,441.4,229.5z"/>
<path class="st14" d="M441.4,264.8h-88.3c-4.9,0-8.8-4-8.8-8.8s4-8.8,8.8-8.8h88.3c4.9,0,8.8,4,8.8,8.8
	C450.2,260.9,446.3,264.8,441.4,264.8z"/>
<path class="st15" d="M317.8,264.8h-26.5c-4.9,0-8.8-4-8.8-8.8s4-8.8,8.8-8.8h26.5c4.9,0,8.8,4,8.8,8.8
	C326.6,260.9,322.7,264.8,317.8,264.8z"/>
</svg>
