<svg height="462pt" viewBox="0 -1 462.86 462" width="462pt" xmlns="http://www.w3.org/2000/svg"><path d="m426.765625 363.527344h-391.019531c-17.628906 0-31.921875-14.292969-31.921875-31.921875v-295.257813c0-17.628906 14.292969-31.921875 31.921875-31.921875h391.019531c17.628906 0 31.921875 14.292969 31.921875 31.921875v295.257813c0 17.628906-14.292969 31.921875-31.921875 31.921875zm0 0" fill="#a4c9ff"/><path d="m458.6875 334.796875v-43.089844h-454.863281v43.089844c0 15.867187 14.292969 28.730469 31.921875 28.730469h391.019531c17.628906 0 31.921875-12.863282 31.921875-28.730469zm0 0" fill="#e0ebfc"/><path d="m369.683594 457.289062h-276.855469c-6.183594 0-11.195313-5.011718-11.195313-11.195312v-5.535156c0-6.183594 5.011719-11.195313 11.195313-11.195313h276.855469c6.183594 0 11.195312 5.011719 11.195312 11.195313v5.535156c0 6.183594-5.011718 11.195312-11.195312 11.195312zm0 0" fill="#e0ebfc"/><path d="m27.765625 255.796875v-215.460937c0-6.609376 5.359375-11.96875 11.96875-11.96875h383.042969c6.609375 0 11.96875 5.359374 11.96875 11.96875v215.460937c0 6.609375-5.359375 11.96875-11.96875 11.96875h-383.042969c-6.609375 0-11.96875-5.359375-11.96875-11.96875zm0 0" fill="#4671c6"/><path d="m232.28125 347.566406h-2.050781c-10.410157 0-18.925781-8.515625-18.925781-18.925781v-2.046875c0-10.410156 8.515624-18.929688 18.925781-18.929688h2.050781c10.410156 0 18.925781 8.519532 18.925781 18.929688v2.046875c0 10.40625-8.519531 18.925781-18.925781 18.925781zm0 0" fill="#a4c9ff"/><path d="m426.9375 367.527344h-391.015625c-19.808594 0-35.921875-16.113282-35.921875-35.917969v-295.257813c0-19.808593 16.113281-35.921874 35.921875-35.921874h391.019531c19.804688 0 35.917969 16.113281 35.917969 35.921874v295.257813c0 19.804687-16.113281 35.917969-35.921875 35.917969zm-391.015625-359.097656c-15.398437 0-27.921875 12.523437-27.921875 27.921874v295.257813c0 15.398437 12.527344 27.921875 27.921875 27.921875h391.019531c15.394532 0 27.917969-12.523438 27.917969-27.921875v-295.257813c0-15.398437-12.523437-27.921874-27.917969-27.921874zm0 0" fill="#3762cc"/><path d="m422.949219 271.769531h-383.042969c-8.804688 0-15.96875-7.164062-15.96875-15.96875v-215.460937c0-8.804688 7.164062-15.96875 15.96875-15.96875h383.042969c8.804687 0 15.96875 7.164062 15.96875 15.96875v215.460937c.003906 8.804688-7.160157 15.96875-15.96875 15.96875zm-383.042969-239.398437c-4.390625 0-7.96875 3.574218-7.96875 7.96875v215.460937c0 4.394531 3.578125 7.96875 7.96875 7.96875h383.042969c4.394531 0 7.96875-3.574219 7.96875-7.96875v-215.460937c0-4.394532-3.574219-7.96875-7.96875-7.96875zm0 0" fill="#3762cc"/><path d="m369.855469 461.292969h-276.855469c-8.378906 0-15.195312-6.816407-15.195312-15.195313v-5.539062c0-8.378906 6.816406-15.195313 15.195312-15.195313h276.855469c8.378906 0 15.199219 6.816407 15.199219 15.195313v5.539062c0 8.378906-6.820313 15.195313-15.199219 15.195313zm-276.855469-27.929688c-3.96875 0-7.195312 3.230469-7.195312 7.199219v5.535156c0 3.96875 3.226562 7.199219 7.195312 7.199219h276.855469c3.96875 0 7.199219-3.230469 7.199219-7.199219v-5.535156c0-3.96875-3.230469-7.199219-7.199219-7.199219zm0 0" fill="#3762cc"/><path d="m137.621094 363.53125-16.089844 65.828125h219.449219l-16.09375-65.828125zm0 0" fill="#a4c9ff"/><path d="m341.152344 433.363281h-219.449219c-1.226563 0-2.386719-.5625-3.144531-1.527343-.757813-.96875-1.03125-2.226563-.742188-3.421876l16.09375-65.835937c.441406-1.789063 2.042969-3.046875 3.886719-3.046875h187.265625c1.84375 0 3.449219 1.257812 3.886719 3.046875l16.089843 65.835937c.292969 1.195313.019532 2.453126-.738281 3.421876-.757812.964843-1.917969 1.527343-3.148437 1.527343zm-214.351563-8h209.257813l-14.136719-57.832031h-180.984375zm0 0" fill="#3762cc"/><g fill="#e0ebfc"><path d="m57.300781 148.976562c5.710938 0 9.644531 2.703126 11.730469 5.46875v-2.476562c0-1.347656 1.09375-2.4375 2.441406-2.4375h2.183594c1.347656 0 2.441406 1.089844 2.441406 2.4375v28.96875c0 1.347656-1.09375 2.441406-2.441406 2.441406h-2.183594c-1.347656 0-2.441406-1.09375-2.441406-2.441406v-2.597656c-2.148438 2.886718-6.203125 5.589844-11.855469 5.589844-8.785156 0-15.847656-7.1875-15.847656-17.628907 0-10.445312 7.0625-17.324219 15.972656-17.324219zm1.472657 6.082032c-5.222657 0-10.257813 3.929687-10.257813 11.242187 0 7.308594 5.035156 11.546875 10.257813 11.546875 5.28125 0 10.257812-4.117187 10.257812-11.425781 0-7.246094-4.976562-11.363281-10.257812-11.363281zm0 0"/><path d="m98.949219 148.976562c5.710937 0 9.644531 2.703126 11.734375 5.46875v-2.476562c0-1.347656 1.089844-2.4375 2.4375-2.4375h2.183594c1.347656 0 2.441406 1.089844 2.441406 2.4375v28.96875c0 1.347656-1.09375 2.441406-2.441406 2.441406h-2.183594c-1.347656 0-2.4375-1.09375-2.4375-2.441406v-2.597656c-2.152344 2.886718-6.207032 5.589844-11.859375 5.589844-8.78125 0-15.847657-7.1875-15.847657-17.628907 0-10.445312 7.0625-17.324219 15.972657-17.324219zm1.472656 6.082032c-5.222656 0-10.257813 3.929687-10.257813 11.242187 0 7.308594 5.035157 11.546875 10.257813 11.546875 5.28125 0 10.261719-4.117187 10.261719-11.425781 0-7.246094-4.980469-11.363281-10.261719-11.363281zm0 0"/><path d="m154.179688 123.367188c7.117187 0 12.648437 2.40625 16.558593 5.539062 1.570313 1.257812 3.90625.054688 3.90625-1.957031v-.144531c0-1.382813 1.09375-2.46875 2.441407-2.46875h7.441406c1.347656 0 2.441406 1.089843 2.441406 2.4375v54.164062c0 1.347656-1.09375 2.441406-2.441406 2.441406h-7.441406c-1.347657 0-2.441407-1.09375-2.441407-2.441406v-.363281c0-2.078125-2.390625-3.148438-4.015625-1.847657-4.003906 3.210938-9.621094 5.617188-16.664062 5.617188-15.324219 0-27.648438-12.539062-27.648438-30.753906 0-18.21875 12.324219-30.222656 27.863282-30.222656zm2.570312 10.609374c-9.109375 0-17.894531 6.859376-17.894531 19.613282 0 12.75 8.785156 20.144531 17.894531 20.144531 9.214844 0 17.894531-7.179687 17.894531-19.933594 0-12.644531-8.679687-19.824219-17.894531-19.824219zm0 0"/><path d="m226.824219 123.367188c7.117187 0 12.652343 2.40625 16.558593 5.539062 1.570313 1.257812 3.910157.054688 3.910157-1.957031v-.144531c0-1.382813 1.089843-2.46875 2.4375-2.46875h7.445312c1.347657 0 2.4375 1.089843 2.4375 2.4375v54.164062c0 1.347656-1.089843 2.441406-2.4375 2.441406h-7.445312c-1.347657 0-2.4375-1.09375-2.4375-2.441406v-.363281c0-2.078125-2.394531-3.148438-4.015625-1.847657-4.003906 3.210938-9.625 5.617188-16.667969 5.617188-15.324219 0-27.644531-12.539062-27.644531-30.753906-.003906-18.21875 12.320312-30.222656 27.859375-30.222656zm2.570312 10.609374c-9.109375 0-17.898437 6.859376-17.898437 19.613282 0 12.75 8.789062 20.144531 17.898437 20.144531 9.214844 0 17.894531-7.179687 17.894531-19.933594 0-12.644531-8.679687-19.824219-17.894531-19.824219zm0 0"/><path d="m299.464844 123.367188c7.121094 0 12.652344 2.40625 16.5625 5.539062 1.570312 1.257812 3.90625.054688 3.90625-1.957031v-.144531c0-1.382813 1.09375-2.46875 2.441406-2.46875h7.441406c1.347656 0 2.441406 1.089843 2.441406 2.4375v54.164062c0 1.347656-1.09375 2.441406-2.441406 2.441406h-7.441406c-1.347656 0-2.441406-1.09375-2.441406-2.441406v-.363281c0-2.078125-2.394532-3.148438-4.015625-1.847657-4.003907 3.210938-9.625 5.617188-16.664063 5.617188-15.324218 0-27.648437-12.539062-27.648437-30.753906 0-18.21875 12.324219-30.222656 27.859375-30.222656zm2.574218 10.609374c-9.109374 0-17.898437 6.859376-17.898437 19.613282 0 12.75 8.789063 20.144531 17.898437 20.144531 9.214844 0 17.894532-7.179687 17.894532-19.933594 0-12.644531-8.679688-19.824219-17.894532-19.824219zm0 0"/><path d="m358.53125 148.976562c5.710938 0 9.644531 2.703126 11.734375 5.46875v-2.476562c0-1.347656 1.089844-2.4375 2.4375-2.4375h2.183594c1.347656 0 2.441406 1.089844 2.441406 2.4375v28.96875c0 1.347656-1.09375 2.441406-2.441406 2.441406h-2.183594c-1.347656 0-2.4375-1.09375-2.4375-2.441406v-2.597656c-2.152344 2.886718-6.207031 5.589844-11.859375 5.589844-8.78125 0-15.847656-7.1875-15.847656-17.628907 0-10.445312 7.0625-17.324219 15.972656-17.324219zm1.472656 6.082032c-5.222656 0-10.257812 3.929687-10.257812 11.242187 0 7.308594 5.035156 11.546875 10.257812 11.546875 5.28125 0 10.261719-4.117187 10.261719-11.425781-.003906-7.246094-4.980469-11.363281-10.261719-11.363281zm0 0"/><path d="m400.179688 148.976562c5.710937 0 9.640624 2.703126 11.730468 5.46875v-2.476562c0-1.347656 1.09375-2.4375 2.441406-2.4375h2.183594c1.347656 0 2.4375 1.089844 2.4375 2.4375v28.96875c0 1.347656-1.089844 2.441406-2.4375 2.441406h-2.183594c-1.347656 0-2.441406-1.09375-2.441406-2.441406v-2.597656c-2.148437 2.886718-6.203125 5.589844-11.855468 5.589844-8.785157 0-15.847657-7.1875-15.847657-17.628907 0-10.445312 7.066407-17.324219 15.972657-17.324219zm1.472656 6.082032c-5.222656 0-10.257813 3.929687-10.257813 11.242187 0 7.308594 5.035157 11.546875 10.257813 11.546875 5.28125 0 10.257812-4.117187 10.257812-11.425781 0-7.246094-4.972656-11.363281-10.257812-11.363281zm0 0"/></g><path d="m449.097656 354.296875c-9.003906 9-23.601562 9-32.601562 0l-76.714844-76.71875c-2.882812-2.878906-2.882812-7.550781 0-10.429687l22.167969-22.167969c2.878906-2.878907 7.550781-2.878907 10.429687 0l76.71875 76.714843c9 9.003907 9 23.597657 0 32.601563zm0 0" fill="#eaa97d"/><path d="m361.699219 245.226562-24.640625-24.640624c-3.101563 4.003906-6.453125 7.875-10.125 11.546874-3.671875 3.671876-7.542969 7.023438-11.546875 10.125l24.640625 24.640626zm0 0" fill="#ffea92"/><path d="m326.550781 60.34375c-47.472656-47.46875-124.535156-47.640625-171.792969-.382812-47.257812 47.257812-47.082031 124.324218.382813 171.792968 47.46875 47.464844 124.535156 47.636719 171.792969.382813 47.257812-47.261719 47.085937-124.324219-.382813-171.792969zm-23.371093 148.03125c-16.550782 16.550781-38.628907 25.628906-62.167969 25.574219-23.523438-.058594-45.621094-9.234375-62.226563-25.839844-34.367187-34.367187-34.488281-90.171875-.269531-124.390625 16.546875-16.546875 38.625-25.628906 62.164063-25.574219 23.523437.058594 45.621093 9.234375 62.226562 25.839844 16.613281 16.613281 25.789062 38.71875 25.839844 62.246094.054687 23.535156-9.027344 45.605469-25.566406 62.144531zm0 0" fill="#6bdddd"/><path d="m432.796875 365.035156c-6.929687 0-13.855469-2.636718-19.128906-7.914062l-76.714844-76.714844c-4.433594-4.4375-4.433594-11.652344 0-16.089844l22.167969-22.167968c2.148437-2.148438 5.003906-3.332032 8.042968-3.332032 3.039063 0 5.894532 1.183594 8.042969 3.332032l76.714844 76.71875c10.546875 10.542968 10.546875 27.707031 0 38.253906-5.273437 5.277344-12.199219 7.914062-19.125 7.914062zm-65.632813-118.21875c-.902343 0-1.75.355469-2.386718.992188l-22.167969 22.167968c-1.316406 1.316407-1.316406 3.457032 0 4.777344l76.710937 76.714844c7.433594 7.425781 19.515626 7.425781 26.945313 0 7.429687-7.429688 7.429687-19.515625 0-26.945312l-76.714844-76.714844c-.636719-.636719-1.484375-.992188-2.386719-.992188zm0 0" fill="#3762cc"/><path d="m340.027344 270.898438c-1.023438 0-2.046875-.386719-2.828125-1.171876l-24.640625-24.640624c-.8125-.8125-1.238282-1.933594-1.164063-3.082032.074219-1.148437.636719-2.207031 1.542969-2.910156 4.050781-3.132812 7.808594-6.429688 11.167969-9.789062 3.359375-3.363282 6.65625-7.121094 9.789062-11.167969.703125-.910157 1.761719-1.472657 2.910157-1.542969 1.140624-.0625 2.269531.351562 3.082031 1.164062l24.640625 24.640626c.75.75 1.171875 1.765624 1.171875 2.828124 0 1.058594-.421875 2.078126-1.171875 2.828126l-21.671875 21.671874c-.78125.785157-1.804688 1.171876-2.828125 1.171876zm-18.65625-28.308594 18.65625 18.652344 16.015625-16.011719-18.65625-18.65625c-2.472657 2.984375-5.027344 5.792969-7.625 8.390625-2.59375 2.59375-5.40625 5.148437-8.390625 7.625zm0 0" fill="#3762cc"/><path d="m241.398438 271.464844c-.097657 0-.191407 0-.289063 0-33.550781-.074219-65.085937-13.171875-88.796875-36.886719-49.027344-49.027344-49.199219-128.628906-.382812-177.445313 23.542968-23.542968 54.917968-36.503906 88.363281-36.503906h.292969c33.546874.078125 65.085937 13.175782 88.792968 36.886719 23.710938 23.710937 36.8125 55.246094 36.886719 88.792969.074219 33.554687-12.886719 65.042968-36.5 88.652344-23.546875 23.546874-54.921875 36.503906-88.367187 36.503906zm-1.105469-242.835938c-31.308594 0-60.671875 12.125-82.707031 34.160156-45.695313 45.695313-45.523438 120.226563.382812 166.136719 22.207031 22.203125 51.738281 34.46875 83.15625 34.539063h.269531c31.3125 0 60.675781-12.125 82.710938-34.160156 22.097656-22.097657 34.226562-51.566407 34.160156-82.980469-.070313-31.417969-12.339844-60.949219-34.542969-83.152344-22.207031-22.207031-51.738281-34.472656-83.160156-34.542969-.085938 0-.179688 0-.269531 0zm.941406 209.316406c-.078125 0-.15625 0-.230469 0-24.589844-.058593-47.6875-9.652343-65.046875-27.007812-35.925781-35.929688-36.050781-94.269531-.269531-130.050781 17.25-17.25 40.246094-26.742188 64.769531-26.742188h.234375c24.585938.058594 47.683594 9.652344 65.042969 27.011719 17.367187 17.363281 26.957031 40.46875 27.011719 65.0625.054687 24.605469-9.445313 47.683594-26.742188 64.984375-17.246094 17.25-40.246094 26.742187-64.769531 26.742187zm-.777344-175.800781c-22.390625 0-43.375 8.660157-59.113281 24.402344-32.660156 32.660156-32.539062 85.925781.269531 118.734375 15.855469 15.851562 36.953125 24.613281 59.410157 24.667969h.210937c22.390625 0 43.375-8.660157 59.113281-24.402344 15.785156-15.78125 24.449219-36.847656 24.398438-59.308594-.046875-22.460937-8.808594-43.566406-24.664063-59.425781-15.855469-15.851562-36.953125-24.613281-59.410156-24.667969-.070313 0-.144531 0-.214844 0zm0 0" fill="#3762cc"/></svg>