<svg xmlns="http://www.w3.org/2000/svg" viewBox="0 0 97.88 97.88"><defs><style>.cls-1{fill:#aac7e8;}.cls-2{fill:#838dc5;}.cls-3{fill:#e2ddee;}.cls-4{fill:#bdbbdc;}.cls-5{fill:#f7f8f9;}.cls-6{fill:#eabb28;}.cls-7{fill:#e38d25;}.cls-8{fill:#ebbaa6;}.cls-9{fill:#e7a28a;}</style></defs><g id="Layer_2" data-name="Layer 2"><g id="Layer_1-2" data-name="Layer 1"><path class="cls-1" d="M40.75,0c-.59,3.53-1.82,10.91-2.17,13a37.39,37.39,0,0,0-7.75,3.21L20.13,8.54,8.54,20.13l7.64,10.7A37.17,37.17,0,0,0,13,38.58L0,40.75V57.14L13,59.3a37.17,37.17,0,0,0,3.21,7.75L8.54,77.75l11.59,11.6,10.7-7.65a37.75,37.75,0,0,0,7.75,3.22c.59,3.52,1.82,10.91,2.17,13h8.19l2.88-48.94L48.94,0Z"/><path class="cls-2" d="M59.3,84.92a37.2,37.2,0,0,0,7.75-3.22l10.7,7.65,11.6-11.6L81.7,67.05a37.52,37.52,0,0,0,3.22-7.75l13-2.16V40.75l-13-2.17a37.43,37.43,0,0,0-3.22-7.75l7.65-10.7L77.75,8.54l-10.7,7.64A37,37,0,0,0,59.3,13c-.59-3.53-1.82-10.91-2.16-13h-8.2V97.88h8.2C57.73,94.36,59,87,59.3,84.92Z"/><path class="cls-3" d="M24.47,48.94A24.49,24.49,0,0,0,48.94,73.41l2.88-24.47L48.94,24.47A24.5,24.5,0,0,0,24.47,48.94Z"/><path class="cls-4" d="M73.41,48.94A24.49,24.49,0,0,0,48.94,24.47V73.41A24.49,24.49,0,0,0,73.41,48.94Z"/><path class="cls-5" d="M30.23,48.94a18.66,18.66,0,0,0,5.43,13.17L51.82,48.94,48.94,30.23A18.73,18.73,0,0,0,30.23,48.94Z"/><path class="cls-3" d="M62.17,35.72a18.66,18.66,0,0,0-13.23-5.49V48.94L62.22,62.11A18.67,18.67,0,0,0,62.17,35.72Z"/><path class="cls-6" d="M35.66,62.11a18.65,18.65,0,0,0,13.28,5.55c0-1.8,1.92-7.2,1.92-7.2s-1.92-6-1.92-7.2A14.42,14.42,0,0,0,35.66,62.11Z"/><path class="cls-7" d="M48.94,53.26v14.4a18.66,18.66,0,0,0,13.28-5.55,14.41,14.41,0,0,0-13.28-8.85Z"/><path class="cls-8" d="M38.87,48.94A10.09,10.09,0,0,0,48.94,59l2.88-10.08L48.94,38.87A10.08,10.08,0,0,0,38.87,48.94Z"/><path class="cls-9" d="M59,48.94A10.09,10.09,0,0,0,48.94,38.87V59A10.09,10.09,0,0,0,59,48.94Z"/></g></g></svg>