<?xml version="1.0" encoding="utf-8"?>
<!-- Generator: Adobe Illustrator 24.1.2, SVG Export Plug-In . SVG Version: 6.00 Build 0)  -->
<svg version="1.1" id="Layer_1" xmlns="http://www.w3.org/2000/svg" xmlns:xlink="http://www.w3.org/1999/xlink" x="0px" y="0px"
	 viewBox="0 0 24 24" style="enable-background:new 0 0 24 24;" xml:space="preserve">
<g>
	<path d="M15,22.5l-0.8-1.9c-0.8,0.2-1.6,0.4-2.4,0.4c-0.8,0-1.6-0.1-2.4-0.3l-0.8,1.8H6.2c-0.4,0-0.7,0.3-0.7,0.7s0.3,0.7,0.7,0.7
		h11.2c0.4,0,0.7-0.3,0.7-0.7s-0.3-0.7-0.7-0.7H15z"/>
	<path d="M20.9,17.5c0-0.4-0.3-0.7-0.7-0.7h-8.4c-2.3,0-4.2-1.9-4.2-4.2c0-1.1,0.4-2.1,1.2-3c0.5-0.5,0.5-1.4,0-2
		c-0.5-0.5-1.4-0.5-2,0c-0.1,0.1-2,1.8-2,4.9c0,3.9,3.1,7,7,7c1.5,0,2.9-0.5,4.1-1.4h4.3C20.6,18.2,20.9,17.9,20.9,17.5z"/>
	<path d="M15.4,12.2l-3.4,2.4l0.4,0.6c0.2,0.3,0.7,0.4,1,0.2l2.3-1.6c0.3-0.2,0.4-0.7,0.2-1L15.4,12.2z"/>
	<path d="M9,0.4C8.8,0.1,8.3,0,8,0.2L3.4,3.4C3.1,3.6,3,4,3.2,4.4c0.2,0.3,0.7,0.4,1,0.2l0.6-0.4l0.8,1.2L9.1,3L8.2,1.8l0.6-0.4
		C9.1,1.2,9.2,0.7,9,0.4L9,0.4z"/>
	<path d="M11.4,3.9c-0.2-0.3-0.7-0.4-1-0.2L7.1,6C7.3,6,7.6,5.9,7.8,5.9c0.7,0,1.4,0.3,2,0.8c1.1,1.1,1.1,2.9,0,3.9
		c-0.5,0.5-0.8,1.3-0.8,2l0.6,0.9c0.2,0.3,0.7,0.4,1,0.2l4.6-3.2c0.3-0.2,0.4-0.7,0.2-1L11.4,3.9z"/>
</g>
</svg>
