<?xml version="1.0" encoding="utf-8"?>
<!-- Generator: Adobe Illustrator 24.1.2, SVG Export Plug-In . SVG Version: 6.00 Build 0)  -->
<svg version="1.1" id="Layer_1" xmlns="http://www.w3.org/2000/svg" xmlns:xlink="http://www.w3.org/1999/xlink" x="0px" y="0px"
	 viewBox="0 0 24 24" style="enable-background:new 0 0 24 24;" xml:space="preserve">
<g>
	<path d="M22.7,1.8H1.3C0.6,1.8,0,2.3,0,3v18c0,0.7,0.6,1.3,1.3,1.3h21.4c0.7,0,1.3-0.6,1.3-1.3V3C24,2.3,23.4,1.8,22.7,1.8z
		 M19.9,3.4c0.6,0,1,0.5,1,1c0,0.6-0.5,1-1,1c-0.6,0-1-0.5-1-1C18.9,3.8,19.3,3.4,19.9,3.4z M17,3.4c0.6,0,1,0.5,1,1
		c0,0.6-0.5,1-1,1c-0.6,0-1-0.5-1-1C16,3.8,16.5,3.4,17,3.4z M14.2,3.4c0.6,0,1,0.5,1,1c0,0.6-0.5,1-1,1c-0.6,0-1-0.5-1-1
		C13.2,3.8,13.6,3.4,14.2,3.4z M21.4,19.7H2.6v-13h18.9v13H21.4z M7.5,17.8c-0.2,0-0.5-0.1-0.7-0.3c-0.4-0.4-0.4-1,0-1.4L9.9,13
		l-3.1-3c-0.4-0.4-0.4-1,0-1.4s1-0.4,1.4,0l3.7,3.7c0.4,0.4,0.4,1,0,1.4l-3.7,3.7C8,17.7,7.8,17.8,7.5,17.8z M17.5,17.8h-4.9
		c-0.5,0-1-0.4-1-1c0-0.5,0.4-1,1-1h4.9c0.5,0,1,0.4,1,1C18.5,17.3,18.1,17.8,17.5,17.8z"/>
</g>
</svg>
