<?xml version="1.0" encoding="utf-8"?>
<!-- Generator: Adobe Illustrator 24.1.2, SVG Export Plug-In . SVG Version: 6.00 Build 0)  -->
<svg version="1.1" id="Layer_1" xmlns="http://www.w3.org/2000/svg" xmlns:xlink="http://www.w3.org/1999/xlink" x="0px" y="0px"
	 viewBox="0 0 512 512" style="enable-background:new 0 0 512 512;" xml:space="preserve">
<style type="text/css">
	.st0{fill:#FDC8A2;}
	.st1{fill:#7EB357;}
	.st2{fill:#FDBF92;}
	.st3{fill:#79AC54;}
	.st4{fill:#804A32;}
	.st5{fill:#FDB683;}
	.st6{fill:#91563A;}
	.st7{fill:#FCB079;}
	.st8{fill:#D5D5D3;}
	.st9{fill:#DFDFDD;}
	.st10{fill:#C6C6C4;}
</style>
<path class="st0" d="M364,328c21.5,0,40.6-13.8,47.4-34.2L416,280h-8c-8.8,0-16-7.2-16-16v-56h-64v56c0,8.8-7.2,16-16,16l4.6,13.8
	C323.4,314.2,342.5,328,364,328z"/>
<path class="st0" d="M192,488h56l31.7-107.7L224,369L192,488z"/>
<path class="st1" d="M440,280h-24l-4.6,13.8c-6.8,20.4-25.9,34.2-47.4,34.2c-21.5,0-40.6-13.8-47.4-34.2L312,280h-33.3
	c-18.1,0-33.9,12.1-38.6,29.6L224,369l55.6,11.3L288,352v136h144V384h48v-64C480,297.9,462.1,280,440,280z"/>
<path class="st2" d="M392,208v40.5c-20.2,10-43.8,10-64,0V208H392z"/>
<path class="st0" d="M432,488h16c17.7,0,32-14.3,32-32v-72h-48V488z"/>
<path class="st1" d="M432,352v-16H288v16c-22.1,22.1-22.1,57.9,0,80v56h144v-56C454.1,409.9,454.1,374.1,432,352z"/>
<path class="st3" d="M364,368c-21.4,0-34.4-8.1-41.5-15l11.1-11.5c7.2,6.9,17.7,10.5,30.5,10.5c18.2,0,27.9-7.1,32.9-13.1l12.3,10.2
	C402,357.7,388.4,368,364,368z"/>
<path class="st0" d="M288,456h64l59.7,23.9c13.4,5.4,27.8,8.1,42.2,8.1c14.4,0,26.1-11.7,26.1-26.1l0,0c0-12.7-9.1-23.5-21.6-25.7
	L344,416h-32l-24,8V456z"/>
<path class="st4" d="M432,64c30.9,0,56,25.1,56,56v128l0,0c-30.9,0-56-25.1-56-56V64L432,64z"/>
<path class="st5" d="M280,128h8l0,0v48l0,0h-8c-13.3,0-24-10.7-24-24S266.7,128,280,128z"/>
<path class="st0" d="M360,240c-39.8,0-72-32.2-72-72v-56c0-35.3,28.7-64,64-64h16c35.3,0,64,28.7,64,64v56
	C432,207.8,399.8,240,360,240z"/>
<path class="st6" d="M316,160c-6.6,0-12-5.4-12-12s5.4-12,12-12s12,5.4,12,12C328,154.6,322.6,160,316,160z"/>
<path class="st6" d="M388,160c-6.6,0-12-5.4-12-12s5.4-12,12-12s12,5.4,12,12C400,154.6,394.6,160,388,160z"/>
<path class="st6" d="M272,112v24c104-8,136-56,136-56l24,48l16,8v-24c0-48.6-39.4-88-88-88S272,63.4,272,112z"/>
<path class="st5" d="M432,128h8c13.3,0,24,10.7,24,24s-10.7,24-24,24h-8l0,0V128L432,128z"/>
<path class="st7" d="M352,208c-13.2,0-24-10.8-24-24h16c0,4.4,3.6,8,8,8s8-3.6,8-8h16C376,197.2,365.2,208,352,208z"/>
<path class="st8" d="M48,232h224c13.3,0,24,10.7,24,24v144c0,13.3-10.7,24-24,24H48c-13.3,0-24-10.7-24-24V256
	C24,242.7,34.7,232,48,232z"/>
<path class="st8" d="M128,456h96v32h-96V456z"/>
<path class="st9" d="M176,488H96l32-128h64L176,488z"/>
<g>
	<path class="st10" d="M48,256h32v16H48V256z"/>
	<path class="st10" d="M96,256h32v16H96V256z"/>
	<path class="st10" d="M144,256h32v16h-32V256z"/>
	<path class="st10" d="M192,256h32v16h-32V256z"/>
	<path class="st10" d="M240,256h32v16h-32V256z"/>
</g>
<path class="st9" d="M16,488h480v16H16V488z"/>
<path class="st9" d="M256,456h104v32H256V456z"/>
</svg>
